<svg xmlns="http://www.w3.org/2000/svg" width="24" height="24" viewBox="0 0 24 24">
  <g id="btn_alarm_w" transform="translate(-5.646 1079)">
    <g id="Icon_ionic-ios-notifications-outline" data-name="Icon ionic-ios-notifications-outline" transform="translate(0 -1082.275)">
      <path id="패스_307" data-name="패스 307" d="M16.975,23.613a.759.759,0,0,0-.744.6,1.468,1.468,0,0,1-.293.639,1.107,1.107,0,0,1-.943.346,1.126,1.126,0,0,1-.943-.346,1.468,1.468,0,0,1-.293-.639.759.759,0,0,0-.744-.6h0a.764.764,0,0,0-.744.932,2.618,2.618,0,0,0,2.725,2.174,2.613,2.613,0,0,0,2.725-2.174.767.767,0,0,0-.744-.932Z" transform="translate(2.628 0.557)" fill="#fbfbfb"/>
      <path id="패스_308" data-name="패스 308" d="M29.345,21.139c-1.156-1.224-3.431-1.941-3.431-7.422,0-5.625-3.093-7.886-5.976-8.429-.27-.054-.465-.127-.465-.356V4.759a1.681,1.681,0,0,0-1.8-1.483h-.045a1.681,1.681,0,0,0-1.8,1.483v.175c0,.223-.2.3-.465.356-2.891.549-5.976,2.8-5.976,8.429,0,5.48-2.275,6.192-3.431,7.422-.743.79-.038,1.917,1.194,1.917h21.03C29.382,23.057,30.08,21.923,29.345,21.139Zm-2.928.35H8.908c-.285,0-.435-.265-.248-.44a7.322,7.322,0,0,0,1.577-2.014,11.279,11.279,0,0,0,1.074-5.318,7.868,7.868,0,0,1,1.569-5.233A4.973,4.973,0,0,1,15.785,6.82a2.835,2.835,0,0,0,1.4-.633.7.7,0,0,1,.893-.012,2.941,2.941,0,0,0,1.412.645,4.973,4.973,0,0,1,2.906,1.664,7.868,7.868,0,0,1,1.569,5.233,11.279,11.279,0,0,0,1.074,5.318,7.425,7.425,0,0,0,1.614,2.044C26.814,21.242,26.679,21.489,26.416,21.489Z" fill="#fbfbfb"/>
    </g>
  </g>
</svg>
