<svg xmlns="http://www.w3.org/2000/svg" width="25.714" height="25.5" viewBox="0 0 25.714 25.5">
  <g id="btn_gnb_mylist_w100" transform="translate(-314.301 -63.51)">
    <g id="그룹_70" data-name="그룹 70" transform="translate(315.158 64.26)">
      <g id="그룹_71" data-name="그룹 71" transform="translate(0 0)">
        <path id="패스_111" data-name="패스 111" d="M.5,13.5,2.4,1.39A1,1,0,0,1,3.395.5H21.6a1,1,0,0,1,.994.89L24.5,13.5" transform="translate(-0.5 -0.5)" fill="none" stroke="#fff" stroke-linecap="round" stroke-linejoin="round" stroke-width="1.5"/>
        <path id="패스_112" data-name="패스 112" d="M16.5,13.5a4,4,0,0,1-8,0H.5v10a1,1,0,0,0,1,1h22a1,1,0,0,0,1-1v-10Z" transform="translate(-0.5 -0.5)" fill="none" stroke="#fff" stroke-linecap="round" stroke-linejoin="round" stroke-width="1.5"/>
        <line id="선_14" data-name="선 14" x2="12" transform="translate(6 4.5)" fill="none" stroke="#fff" stroke-linecap="round" stroke-linejoin="round" stroke-width="1.5"/>
        <line id="선_15" data-name="선 15" x2="12" transform="translate(6 8.5)" fill="none" stroke="#fff" stroke-linecap="round" stroke-linejoin="round" stroke-width="1.5"/>
      </g>
    </g>
  </g>
</svg>
