<svg xmlns="http://www.w3.org/2000/svg" width="23.714" height="23.5" viewBox="0 0 23.714 23.5">
  <g id="그룹_70" data-name="그룹 70" transform="translate(0.357 0.25)">
    <g id="그룹_71" data-name="그룹 71" transform="translate(0.5 0.5)">
      <path id="패스_111" data-name="패스 111" d="M.5,12.417l1.743-11.1A.916.916,0,0,1,3.154.5H19.846a.916.916,0,0,1,.911.816l1.743,11.1" transform="translate(-0.5 -0.5)" fill="none" stroke="#1e1e1e" stroke-linecap="round" stroke-linejoin="round" stroke-width="1.5"/>
      <path id="패스_112" data-name="패스 112" d="M15.167,13.5a3.667,3.667,0,0,1-7.333,0H.5v9.167a.917.917,0,0,0,.917.917H21.583a.917.917,0,0,0,.917-.917V13.5Z" transform="translate(-0.5 -1.583)" fill="none" stroke="#1e1e1e" stroke-linecap="round" stroke-linejoin="round" stroke-width="1.5"/>
      <line id="선_14" data-name="선 14" x2="11" transform="translate(5.5 4.125)" fill="none" stroke="#1e1e1e" stroke-linecap="round" stroke-linejoin="round" stroke-width="1.5"/>
      <line id="선_15" data-name="선 15" x2="11" transform="translate(5.5 7.792)" fill="none" stroke="#1e1e1e" stroke-linecap="round" stroke-linejoin="round" stroke-width="1.5"/>
    </g>
  </g>
</svg>
