<svg xmlns="http://www.w3.org/2000/svg" width="21.007" height="21" viewBox="0 0 21.007 21">
  <g id="ic_thumbs" transform="translate(-19 -415)">
    <rect id="사각형_19" data-name="사각형 19" width="21" height="21" transform="translate(19 415)" fill="none"/>
    <g id="그룹_1829" data-name="그룹 1829">
      <g id="그룹_1827" data-name="그룹 1827" transform="translate(20.25 416.859)">
        <rect id="사각형_18" data-name="사각형 18" width="3.989" height="12" rx="1" transform="translate(0.25 5.641)" fill="none" stroke="#696c75" stroke-miterlimit="10" stroke-width="1"/>
        <path id="패스_86" data-name="패스 86" d="M10.9.141c-.81,0-1,.969-1,3,0,1.931-1.793,3.2-2.992,4v10a17.378,17.378,0,0,0,7.978,2h1a3.325,3.325,0,0,0,2.992-3l1-5a3.281,3.281,0,0,0-2.992-4H12.89a4.292,4.292,0,0,0,1-3C13.887,1.7,11.705.141,10.9.141Z" transform="translate(-0.673 -0.5)" fill="none" stroke="#696c75" stroke-miterlimit="10" stroke-width="1"/>
      </g>
    </g>
  </g>
</svg>
