<svg xmlns="http://www.w3.org/2000/svg" width="16" height="16" viewBox="0 0 16 16">
  <g id="ic_view" transform="translate(-19 -415)">
    <rect id="사각형_19" data-name="사각형 19" width="16" height="16" transform="translate(19 415)" fill="none"/>
    <path id="Icon_ionic-md-eye" data-name="Icon ionic-md-eye" d="M8.75,7.383a6.99,6.99,0,0,0-6.5,4.38,7.013,7.013,0,0,0,13,0A6.99,6.99,0,0,0,8.75,7.383Zm0,7.3A2.921,2.921,0,1,1,11.7,11.763,2.946,2.946,0,0,1,8.75,14.684Zm0-4.673a1.752,1.752,0,1,0,1.773,1.752A1.768,1.768,0,0,0,8.75,10.011Z" transform="translate(18 411.617)" fill="#cacbd4"/>
  </g>
</svg>
