<svg xmlns="http://www.w3.org/2000/svg" width="30" height="30" viewBox="0 0 30 30">
  <g id="unselected_hot" transform="translate(-49 -761)">
    <rect id="사각형_23" data-name="사각형 23" width="30" height="30" transform="translate(49 761)" fill="none"/>
    <g id="그룹_67" data-name="그룹 67">
      <path id="패스_109" data-name="패스 109" d="M-2.363-3.488v1.651h-1.9V-3.488h-.969V.7h.969V-1.017h1.9V.7h.969V-3.488ZM1.627.771A2.167,2.167,0,0,0,3.918-1.394,2.167,2.167,0,0,0,1.627-3.56,2.167,2.167,0,0,0-.664-1.394,2.167,2.167,0,0,0,1.627.771Zm0-.826a1.277,1.277,0,0,1-1.31-1.34,1.277,1.277,0,0,1,1.31-1.34,1.277,1.277,0,0,1,1.31,1.34A1.277,1.277,0,0,1,1.627-.054ZM5.456.7h.969V-2.7h1.34v-.79H4.116v.79h1.34Z" transform="translate(62.932 781)" fill="#b9bac5"/>
      <path id="패스_110" data-name="패스 110" d="M17.467,7.685a.74.74,0,0,0-1.174.192A8.534,8.534,0,0,1,14.9,9.837a9.8,9.8,0,0,0,.082-1.269,10.044,10.044,0,0,0-.324-2.492A9.3,9.3,0,0,0,9.565.582a.741.741,0,0,0-1.078.6C8.29,3.686,7,5.064,4.947,6.533l-.081.059c-.056.041-.109.079-.158.112l-.023.016A10.08,10.08,0,0,0,1.6,10.286,8.391,8.391,0,0,0,.5,14.464a9.563,9.563,0,0,0,.317,2.431A9.993,9.993,0,0,0,10.5,24.407c5.516,0,10-4.037,10-9.554A9.922,9.922,0,0,0,17.467,7.685Z" transform="translate(53.697 763.474)" fill="none" stroke="#b9bac5" stroke-miterlimit="10" stroke-width="1"/>
    </g>
  </g>
</svg>
