<svg xmlns="http://www.w3.org/2000/svg" width="30" height="30" viewBox="0 0 30 30">
  <g id="unselected_write" transform="translate(-49 -761)">
    <rect id="사각형_23" data-name="사각형 23" width="30" height="30" transform="translate(49 761)" fill="none"/>
    <g id="그룹_56" data-name="그룹 56" transform="translate(52.96 765.5)">
      <path id="패스_103" data-name="패스 103" d="M20.5,10.5v8.824A1.177,1.177,0,0,1,19.324,20.5H1.676A1.177,1.177,0,0,1,.5,19.324V1.676A1.177,1.177,0,0,1,1.676.5H10.5" fill="none" stroke="#b9bac5" stroke-linecap="round" stroke-linejoin="round" stroke-width="1"/>
      <path id="패스_104" data-name="패스 104" d="M9.489,15.2l-4.182.646.646-4.182L16.664.958a1.3,1.3,0,0,1,1.83,0l1.7,1.705a1.294,1.294,0,0,1,0,1.831Z" fill="none" stroke="#b9bac5" stroke-linecap="round" stroke-linejoin="round" stroke-width="1"/>
    </g>
  </g>
</svg>
